<svg width="109" height="110" viewBox="0 0 109 110" fill="none" xmlns="http://www.w3.org/2000/svg">
<rect width="109" height="110" fill="white" fill-opacity="0.01"/>
<path fill-rule="evenodd" clip-rule="evenodd" d="M18.1666 7.33337H90.8333C96.853 7.33337 101.733 12.2582 101.733 18.3334V91.6667C101.733 97.7416 96.853 102.667 90.8333 102.667H18.1666C12.1467 102.667 7.2666 97.7416 7.2666 91.6667V18.3334C7.2666 12.2582 12.1467 7.33337 18.1666 7.33337ZM18.1666 14.6667C16.16 14.6667 14.5333 16.3083 14.5333 18.3334V61.3331L26.7543 48.9999C27.3814 48.3671 28.2362 48.0185 29.1228 48.0339C30.0095 48.0492 30.8519 48.4273 31.457 49.0815L57.2144 76.9274L77.621 56.3332C78.8978 55.0446 80.9688 55.0446 82.2455 56.3332L94.4666 68.6664V18.3334C94.4666 16.3083 92.8396 14.6667 90.8333 14.6667H18.1666ZM14.5333 91.6667V70.667L28.9857 56.0819L54.7259 83.9088L64.9721 95.3334H18.1666C16.16 95.3334 14.5333 93.6914 14.5333 91.6667ZM90.8333 95.3334H73.7929L61.6457 81.7887L79.9333 63.3336L94.4666 78.0003V91.6667C94.4666 93.6914 92.8396 95.3334 90.8333 95.3334ZM48.3176 40.3334C48.3176 36.8877 51.0855 34.0943 54.4999 34.0943C57.9143 34.0943 60.6823 36.8877 60.6823 40.3334C60.6823 43.7791 57.9143 46.5724 54.4999 46.5724C51.0855 46.5724 48.3176 43.7791 48.3176 40.3334ZM54.4999 27.4943C47.4736 27.4943 41.7776 33.2426 41.7776 40.3334C41.7776 47.4242 47.4736 53.1724 54.4999 53.1724C61.5263 53.1724 67.2223 47.4242 67.2223 40.3334C67.2223 33.2426 61.5263 27.4943 54.4999 27.4943Z" fill="#1C2024"/>
</svg>
