<svg width="16" height="16" viewBox="0 0 16 16" fill="none" xmlns="http://www.w3.org/2000/svg">
<rect width="16" height="16" fill="white" fill-opacity="0.01"/>
<path fill-rule="evenodd" clip-rule="evenodd" d="M5.17709 2.28952C5.38538 2.49779 5.38538 2.83548 5.17709 3.04376L3.95422 4.26664H9.59997C12.251 4.26664 14.4 6.41567 14.4 9.06664C14.4 11.7176 12.251 13.8666 9.59997 13.8666H5.3333C5.03875 13.8666 4.79997 13.6278 4.79997 13.3333C4.79997 13.0388 5.03875 12.8 5.3333 12.8H9.59997C11.6618 12.8 13.3333 11.1285 13.3333 9.06664C13.3333 7.00477 11.6618 5.3333 9.59997 5.3333H3.95422L5.17709 6.55618C5.38538 6.76446 5.38538 7.10215 5.17709 7.31042C4.96881 7.51871 4.63113 7.51871 4.42285 7.31042L2.28952 5.17709C2.08123 4.96881 2.08123 4.63113 2.28952 4.42285L4.42285 2.28952C4.63113 2.08123 4.96881 2.08123 5.17709 2.28952Z" fill="#1C2024"/>
</svg>
