<svg width="42" height="42" viewBox="0 0 42 42" fill="none" xmlns="http://www.w3.org/2000/svg">
<path d="M2.2 14.3333H5C5.22 14.3333 5.4 14.1458 5.4 13.9167V4.75H14.2C14.42 4.75 14.6 4.5625 14.6 4.33333V1.41667C14.6 1.1875 14.42 1 14.2 1H5.2C3.32 1 1.8 2.58333 1.8 4.54167V13.9167C1.8 14.1458 1.98 14.3333 2.2 14.3333ZM27.8 4.75H36.6V13.9167C36.6 14.1458 36.78 14.3333 37 14.3333H39.8C40.02 14.3333 40.2 14.1458 40.2 13.9167V4.54167C40.2 2.58333 38.68 1 36.8 1H27.8C27.58 1 27.4 1.1875 27.4 1.41667V4.33333C27.4 4.5625 27.58 4.75 27.8 4.75ZM14.2 37.25H5.4V28.0833C5.4 27.8542 5.22 27.6667 5 27.6667H2.2C1.98 27.6667 1.8 27.8542 1.8 28.0833V37.4583C1.8 39.4167 3.32 41 5.2 41H14.2C14.42 41 14.6 40.8125 14.6 40.5833V37.6667C14.6 37.4375 14.42 37.25 14.2 37.25ZM39.8 27.6667H37C36.78 27.6667 36.6 27.8542 36.6 28.0833V37.25H27.8C27.58 37.25 27.4 37.4375 27.4 37.6667V40.5833C27.4 40.8125 27.58 41 27.8 41H36.8C38.68 41 40.2 39.4167 40.2 37.4583V28.0833C40.2 27.8542 40.02 27.6667 39.8 27.6667ZM40.6 19.125H1.4C1.18 19.125 1 19.3125 1 19.5417V22.4583C1 22.6875 1.18 22.875 1.4 22.875H40.6C40.82 22.875 41 22.6875 41 22.4583V19.5417C41 19.3125 40.82 19.125 40.6 19.125Z" fill="white" stroke="white" stroke-width="0.78125"/>
</svg>
