<svg width="39" height="43" viewBox="0 0 39 43" fill="none" xmlns="http://www.w3.org/2000/svg">
<path d="M13.1063 24.3313L25.9125 31.7937M25.8937 11.2063L13.1063 18.6687M36.375 8.375C36.375 11.4816 33.8566 14 30.75 14C27.6434 14 25.125 11.4816 25.125 8.375C25.125 5.2684 27.6434 2.75 30.75 2.75C33.8566 2.75 36.375 5.2684 36.375 8.375ZM13.875 21.5C13.875 24.6066 11.3566 27.125 8.25 27.125C5.1434 27.125 2.625 24.6066 2.625 21.5C2.625 18.3934 5.1434 15.875 8.25 15.875C11.3566 15.875 13.875 18.3934 13.875 21.5ZM36.375 34.625C36.375 37.7316 33.8566 40.25 30.75 40.25C27.6434 40.25 25.125 37.7316 25.125 34.625C25.125 31.5184 27.6434 29 30.75 29C33.8566 29 36.375 31.5184 36.375 34.625Z" stroke="#1E1E1E" stroke-width="4" stroke-linecap="round" stroke-linejoin="round"/>
</svg>
